<svg width="60" height="60" viewBox="0 0 60 60" fill="none" xmlns="http://www.w3.org/2000/svg">
<rect width="60" height="60" rx="12" fill="#6366f1"/>
<path d="M15 20C15 18.8954 15.8954 18 17 18H20C21.1046 18 22 18.8954 22 20V40C22 41.1046 21.1046 42 20 42H17C15.8954 42 15 41.1046 15 40V20Z" fill="white"/>
<path d="M26 15C26 13.8954 26.8954 13 28 13H31C32.1046 13 33 13.8954 33 15V45C33 46.1046 32.1046 47 31 47H28C26.8954 47 26 46.1046 26 45V15Z" fill="white"/>
<path d="M37 22C37 20.8954 37.8954 20 39 20H42C43.1046 20 44 20.8954 44 22V38C44 39.1046 43.1046 40 42 40H39C37.8954 40 37 39.1046 37 38V22Z" fill="white"/>
<circle cx="49" cy="30" r="3" fill="white"/>
</svg>